<?xml version="1.0" standalone="no"?>
<!DOCTYPE svg PUBLIC "-//W3C//DTD SVG 1.1//EN" "http://www.w3.org/Graphics/SVG/1.1/DTD/svg11.dtd" >
<svg xmlns="http://www.w3.org/2000/svg">
<metadata>Generated by IcoMoon</metadata>
<defs>
<font id="icomoon" horiz-adv-x="1024">
<font-face units-per-em="1024" ascent="960" descent="-64" />
<missing-glyph horiz-adv-x="1024" />
<glyph unicode="&#x20;" horiz-adv-x="512" d="" />
<glyph unicode="&#xe900;" glyph-name="chevron-left" d="M748.48-64c-16.96 0-33.92 6.4-46.72 19.52l-492.48 492.48 492.48 492.48c25.92 25.92 67.84 25.92 93.76 0s25.92-67.84 0-93.76l-398.72-398.72 398.72-398.72c25.92-25.92 25.92-67.84 0-93.76-12.8-12.8-29.76-19.52-46.72-19.52z" />
<glyph unicode="&#xe901;" glyph-name="chevron-right" d="M275.52-64c-16.96 0-33.92 6.4-46.72 19.52-25.92 25.92-25.92 67.84 0 93.76l398.72 398.72-399.040 398.72c-25.92 25.92-25.92 67.84 0 93.76s67.84 25.92 93.76 0l492.48-492.48-492.48-492.48c-12.8-12.8-29.76-19.52-46.72-19.52z" />
<glyph unicode="&#xe902;" glyph-name="cart" d="M0 864c0 23.68 19.2 42.88 42.88 42.88 0 0 0 0 0 0h81.6c38.72 0 74.24-22.4 90.88-57.28h736.96c39.68 0 71.68-32 71.68-71.68 0-6.4-0.96-12.48-2.56-18.56l-73.6-272.96c-15.36-56.32-66.24-95.36-124.48-95.68h-517.12l9.6-50.88c3.84-20.16 21.76-34.88 42.56-34.88h516.8c23.68 0 42.88-19.2 42.88-43.2 0-23.68-19.2-42.88-42.88-42.88h-517.12c-61.76 0-115.2 43.84-126.72 104.64l-92.48 486.080c-1.28 6.72-7.36 11.84-14.080 11.52h-81.92c-23.68 0-42.88 19.2-42.88 42.88 0 0 0 0 0 0zM229.44 75.2c0 47.68 38.4 86.080 86.080 86.080s86.080-38.4 86.080-86.080-38.4-86.080-86.080-86.080v0c-47.68 0-86.080 38.4-86.080 86.080zM832 161.28c47.68 0 86.080-38.72 85.76-86.4 0-47.68-38.72-86.080-86.4-85.76-47.36 0-85.76 38.72-85.76 86.080s38.4 85.76 86.080 86.080h0.32z" />
<glyph unicode="&#xe903;" glyph-name="wine-glass" d="M256.32 901.44c2.88 32.96 30.4 58.56 63.68 58.56h384c33.28 0 60.8-25.6 63.68-58.56l28.16-336.64c11.84-141.12-81.92-269.44-219.84-301.12v-199.36h96c35.2 0 64-28.8 64-64s-28.8-64-64-64h-319.68c-35.2 0-64 28.8-64 64s28.8 64 64 64h96v199.040c-137.92 31.68-231.68 160-219.84 301.12l28.16 336.64zM368.32 704h287.68l-10.56 128h-266.56l-10.56-128z" />
<glyph unicode="&#xe904;" glyph-name="close" d="M615.36 448l387.2 387.2c28.48 28.48 28.48 74.88 0 103.36s-74.88 28.48-103.36 0l-387.2-387.2-387.2 387.2c-28.48 28.48-74.88 28.48-103.36 0s-28.48-74.88 0-103.36l387.2-387.2-387.2-387.2c-28.48-28.48-28.48-74.88 0-103.36 14.4-14.4 32.96-21.44 51.84-21.44s37.44 7.040 51.84 21.44l387.2 387.2 387.2-387.2c14.4-14.4 32.96-21.44 51.84-21.44s37.44 7.040 51.84 21.44c28.48 28.48 28.48 74.88 0 103.36l-387.2 387.2z" />
<glyph unicode="&#xe905;" glyph-name="date" d="M256 896v-63.68h-96c-53.12 0-96-43.2-96-96 0 0 0-0.32 0-0.64v-96h895.68v96c0 53.12-42.88 96-96 96h-96v64.32c0 35.2-28.8 64-64 64s-64-28.8-64-64v-63.68h-256v63.68c0.32 35.2-28.16 64-63.68 64s-64-28.8-64-64v0zM959.68 575.68h-895.68v-543.68c0-53.12 42.88-96 96-96h704c53.12 0 96 42.88 96 96v543.68z" />
<glyph unicode="&#xe906;" glyph-name="email" d="M96 832c-53.12 0-96-42.88-96-96 0-30.080 14.080-58.56 38.4-76.8l435.2-326.4c22.72-16.96 54.080-16.96 76.8 0l435.2 326.4c42.56 31.68 50.88 91.84 19.2 134.4-18.24 24.32-46.72 38.4-76.8 38.4h-832zM0 608v-416c0-70.72 57.28-128 128-128h768c70.72 0 128 57.28 128 128v416l-435.2-326.4c-45.44-34.24-108.16-34.24-153.6 0l-435.2 326.4z" />
<glyph unicode="&#xe907;" glyph-name="facebook" d="M750.080 384l28.48 185.28h-177.92v120.32c-4.48 50.88 32.96 96 83.84 100.48 6.72 0.64 13.76 0.32 20.48-0.32h80.96v157.76c-47.36 7.68-95.36 11.84-143.68 12.48-146.56 0-242.24-88.64-242.24-249.28v-141.12h-162.88v-185.28h162.88v-448h200.32v448h149.12z" />
<glyph unicode="&#xe908;" glyph-name="home" d="M1024 448.96c0-31.36-25.6-56.64-56.96-56.96h-56.96l1.28-284.8c0-4.8-0.32-9.6-0.96-14.4v-28.48c0-39.36-31.68-71.040-71.040-71.040h-142.4c-39.36 0-71.040 31.68-71.040 71.040 0 0 0 0 0 0v156.48c0 31.36-25.28 56.96-56.64 56.96 0 0 0 0 0 0h-113.92c-31.36 0-56.96-25.28-56.96-56.64 0 0 0 0 0 0v-156.48c0-39.36-31.68-71.040-71.040-71.040h-99.2c-2.56 0-5.44 0-8 0.32s-4.16-0.32-6.4-0.32h-28.8c-39.36 0-71.040 31.68-71.040 71.040 0 0 0 0 0 0v199.040c0 1.6 0 3.2 0 5.12v123.84h-56.96c-31.040-0.32-56.64 24.64-56.96 55.68 0 0.64 0 0.96 0 1.6 0 16 6.080 31.68 17.92 42.56l455.68 396.48c10.24 9.92 24.64 15.040 38.72 14.080 13.44 0 26.56-4.16 37.44-12.48l454.080-399.040c13.44-9.92 20.8-25.92 19.84-42.56z" />
<glyph unicode="&#xe909;" glyph-name="instagram" d="M512.32 710.4c-144.96 0-262.4-117.44-262.4-262.4s117.44-262.4 262.4-262.4 262.4 117.44 262.4 262.4c0 144.64-117.12 262.080-261.76 262.4 0 0-0.32 0-0.64 0zM512.32 277.12c-94.4 0-170.56 76.48-170.56 170.56s76.48 170.56 170.56 170.56 170.56-76.48 170.56-170.56c0-94.080-76.48-170.56-170.56-170.56zM846.72 720.96c0-33.92-27.52-61.12-61.12-61.12s-61.12 27.52-61.12 61.12c0 33.92 27.52 61.12 61.12 61.12v0c33.6 0 61.12-27.2 61.12-60.8 0 0 0 0 0 0v0zM1020.48 658.88c1.6 79.68-27.84 156.48-82.56 214.4-57.92 54.72-135.040 84.48-214.4 82.88-84.48 4.8-337.92 4.8-422.4 0-79.68 1.6-156.8-27.84-214.72-82.56-54.72-57.92-84.16-134.72-82.88-214.4-4.8-84.48-4.8-337.92 0-422.080-1.6-79.68 27.84-156.48 82.56-214.4 57.92-54.4 135.040-84.16 214.4-82.56 84.48-4.8 337.92-4.8 422.4 0 79.68-1.6 156.48 27.84 214.4 82.56 54.4 57.92 84.16 135.040 82.56 214.4 4.8 84.48 4.8 337.6 0 422.080v0zM911.36 145.92c-17.6-44.48-52.8-79.68-97.28-97.28-67.52-26.88-227.2-20.48-301.76-20.48s-234.56-6.080-301.76 20.48c-44.48 17.6-79.68 52.8-97.28 97.28-26.88 67.52-20.48 227.2-20.48 301.76s-6.080 234.56 20.48 301.76c17.6 44.48 52.8 79.68 97.28 97.28 67.52 26.88 227.2 20.48 301.76 20.48s234.56 6.080 301.76-20.48c44.48-17.6 79.68-52.8 97.28-97.28 26.88-67.52 20.48-227.2 20.48-301.76s6.080-234.56-20.48-301.76z" />
<glyph unicode="&#xe90a;" glyph-name="long-arrow-right" d="M878.4 593.6l-28.48-28.16 97.6-97.6h-947.52v-39.68h947.52l-97.6-97.6 28.48-28.16 145.6 145.6-145.6 145.6z" />
<glyph unicode="&#xe90b;" glyph-name="twitter" d="M606.4 525.76l369.28 429.12h-87.36l-320.64-372.8-256.32 372.8h-295.36l387.2-563.52-387.2-450.24h87.36l338.56 393.6 270.4-393.6h295.36l-401.6 584.64zM486.4 386.56l-39.36 56-312 446.4h134.4l251.84-360.32 39.36-56 327.68-468.48h-134.4l-267.2 382.4z" />
<glyph unicode="&#xe90c;" glyph-name="map-pin" d="M512 960c-217.6 0-393.92-176.32-393.92-393.92s393.92-630.080 393.92-630.080c0 0 393.92 412.48 393.92 630.080s-176.32 393.92-393.92 393.92zM512 320.64c-133.44 0-241.28 108.16-241.28 241.28s108.16 241.28 241.28 241.28c133.44 0 241.28-108.16 241.28-241.28v0c0-133.44-108.16-241.28-241.28-241.28z" />
<glyph unicode="&#xe90d;" glyph-name="menu" d="M1024 566.080c0 14.4-11.84 26.24-26.24 26.24h-971.52c-14.4 0-26.24-11.84-26.24-26.24s11.84-26.24 26.24-26.24h971.52c14.4 0 26.24 11.84 26.24 26.24zM997.76 356.16h-656.32c-14.4 0-26.24-11.84-26.24-26.24s11.84-26.24 26.24-26.24h656.32c14.4 0 26.24 11.84 26.24 26.24s-11.84 26.24-26.24 26.24z" />
<glyph unicode="&#xe90e;" glyph-name="minus" d="M963.84 387.84h-903.68c-33.28 0-60.16 26.88-60.16 60.16s26.88 60.16 60.16 60.16h903.68c33.28 0 60.16-26.88 60.16-60.16s-26.88-60.16-60.16-60.16z" />
<glyph unicode="&#xe90f;" glyph-name="pinterest" d="M1024 448c0-282.88-229.44-512-512-511.68-51.2 0-102.4 7.68-151.36 23.040 26.88 41.92 48.32 86.72 63.68 134.080 6.080 24 31.68 121.92 31.68 121.92 26.56-38.4 70.72-60.48 117.12-58.88 154.56 0 265.6 142.080 265.6 318.4s-138.24 295.68-315.52 295.68c-220.8 0-338.24-148.16-338.24-309.76 0-75.2 40-168.64 103.68-198.4 9.6-4.48 14.72-2.56 16.96 6.72 1.6 7.040 10.24 41.92 14.080 57.92 1.6 5.12 0 10.88-3.52 14.72-24.32 33.92-37.76 74.88-37.76 116.8-0.64 122.24 98.24 222.080 220.48 222.4 3.52 0 7.040 0 10.56 0 111.36 6.4 207.040-78.4 213.44-189.76 0.32-6.080 0.32-12.16 0-18.24 0-138.56-70.080-234.56-160.96-234.56-40.96-1.92-75.84 29.44-77.76 70.4-0.32 7.36 0.32 14.72 2.24 22.080 18.88 55.68 32.96 112.64 42.24 170.56 4.16 35.2-20.8 67.2-56 71.68-2.88 0.32-5.76 0.64-8.64 0.32-51.52 0-92.8-53.12-92.8-124.48-0.32-26.24 4.8-52.16 15.36-75.84 0 0-50.56-214.080-60.16-254.080-8-48.64-8.64-98.24-1.92-146.88-262.4 102.080-392.32 399.040-289.28 662.080 103.040 263.36 400 393.28 663.36 290.24 196.16-76.8 325.44-265.92 325.44-476.8z" />
<glyph unicode="&#xe910;" glyph-name="plus" d="M963.84 508.16h-391.68v391.68c0 33.28-26.88 60.16-60.16 60.16s-60.16-26.88-60.16-60.16v-391.68h-391.68c-33.28 0-60.16-26.88-60.16-60.16s26.88-60.16 60.16-60.16h391.68v-391.68c0-33.28 26.88-60.16 60.16-60.16s60.16 26.88 60.16 60.16v391.68h391.68c33.28 0 60.16 26.88 60.16 60.16s-26.88 60.16-60.16 60.16z" />
<glyph unicode="&#xe911;" glyph-name="skype" d="M970.897 347.711c7.038 32.95 10.557 66.539 10.877 100.129 0 259.119-209.854 469.293-468.973 469.293h-0.32c-33.59 0-67.179-3.519-100.129-10.877-111.965 86.693-272.555 66.219-358.928-45.746-71.018-92.131-71.018-220.411 0-312.542-7.038-32.95-10.557-66.539-10.877-100.129 0-259.119 209.854-469.293 468.973-469.293h0.32c33.59 0 67.179 3.519 100.129 10.877 111.965-86.373 272.555-65.58 358.608 46.386 34.549 44.786 53.423 99.809 53.423 156.431 0 56.302-18.554 111.325-53.103 155.791v0zM525.916 138.497c-150.033 0-275.434 66.859-275.434 148.754-3.199 35.189 22.713 66.539 58.222 69.738 3.199 0 6.078 0.32 9.277 0 71.338 0 78.056-102.368 201.537-102.368 58.862 0 96.61 25.912 96.61 60.141 0 42.867-36.469 49.265-95.97 63.98-142.995 35.189-269.356 50.224-269.356 199.298 0 135.318 134.038 185.542 249.202 185.542 126.041 0 253.361-50.224 253.361-126.68 2.239-38.068-26.872-70.698-64.94-72.617-1.28 0-2.879 0-4.159 0-64.62 0-66.859 76.456-171.466 76.456-58.862 0-95.97-15.995-95.97-51.504 0-45.426 47.665-49.904 158.031-75.177 94.69-21.113 207.295-61.101 207.295-177.225 0-134.998-130.519-197.698-255.92-197.698v0z" />
<glyph unicode="&#xe912;" glyph-name="time" d="M512 960c282.88 0 512-229.12 512-512s-229.12-512-512-512-512 229.12-512 512v0c0 282.88 229.12 512 512 512zM464 720v-271.68c0-16 8-31.040 21.44-40l192-128.32c21.44-15.68 51.52-10.88 67.2 10.56s10.88 51.52-10.56 67.2c-0.96 0.64-2.24 1.6-3.2 2.24l-170.56 113.6v246.4c0 26.56-21.44 48-48 48s-48-21.44-48-48v0z" />
<glyph unicode="&#xe913;" glyph-name="vk" d="M72 888c-72-72-72-187.84-72-419.52v-40.96c0-231.68 0-347.52 72-419.52s187.84-72 419.52-72h40.96c231.68 0 347.52 0 419.52 72s72 187.84 72 419.52v40.96c0 231.68 0 347.52-72 419.52s-187.84 72-419.52 72h-40.96c-231.68 0-347.52 0-419.52-72zM172.8 648.64h117.12c3.84-195.52 89.92-278.080 158.4-295.36v295.36h110.080v-168.64c67.52 7.36 138.24 84.16 162.24 168.64h110.080c-18.24-88.64-72.64-165.76-150.080-212.48 86.4-42.88 150.080-120.64 175.36-213.44h-120.96c-22.72 81.6-92.48 141.76-176.64 152.32v-152.32h-13.12c-233.28 0-366.4 159.68-372.16 425.92z" />
<glyph unicode="&#xe914;" glyph-name="whats-app" d="M870.72 811.52c-198.4 198.080-519.68 198.080-718.080 0-161.92-162.56-195.2-413.76-80.64-612.48l-72-263.040 269.12 70.4c74.56-40.64 157.76-61.76 242.56-61.76v0c278.4-4.48 507.84 217.92 512.32 496.32 2.24 139.2-53.44 273.28-153.28 370.24v0zM511.68 30.72c-75.52 0-149.76 20.16-215.040 58.88l-15.36 9.28-159.36-41.92 42.24 155.84-9.92 16c-121.28 199.68-57.6 459.52 141.76 580.8 199.68 121.28 459.52 57.6 580.8-141.76 39.36-64.64 60.48-138.88 61.44-214.4-2.56-233.92-192.64-422.080-426.56-422.080v0zM743.040 346.56c-12.48 6.4-74.88 37.12-86.72 41.28s-20.16 6.4-28.48-6.4-32.96-41.28-40.32-49.92-14.72-9.28-27.52-3.2c-72.96 29.12-134.080 82.24-172.48 151.040-13.12 22.4 13.12 20.8 37.12 69.44 3.2 7.040 2.88 15.36-1.28 22.080-3.2 6.4-28.48 68.8-39.040 94.080s-20.8 21.12-28.48 21.76-15.68 0.32-24.32 0.32c-13.12-0.32-25.28-6.080-33.92-15.68-29.12-27.52-45.12-65.92-44.48-105.92 4.16-47.68 22.080-93.44 51.84-131.2 54.4-81.6 128.96-147.52 216.64-191.68 46.080-26.56 99.52-37.76 152.32-31.68 35.84 7.36 66.88 29.12 85.44 60.48 8.32 18.88 10.88 40 7.36 60.48-2.88 5.76-11.52 8.96-24 15.040z" />
<glyph unicode="&#xe915;" glyph-name="search" d="M684.416 283.477c-1.451-1.109-2.859-2.347-4.224-3.712s-2.56-2.731-3.712-4.224c-53.675-51.755-126.677-83.541-207.147-83.541-82.475 0-157.099 33.365-211.2 87.467s-87.467 128.725-87.467 211.2 33.365 157.099 87.467 211.2 128.725 87.467 211.2 87.467 157.099-33.365 211.2-87.467 87.467-128.725 87.467-211.2c0-80.469-31.787-153.472-83.584-207.189zM926.165 94.165l-156.8 156.8c52.523 65.707 83.968 149.035 83.968 239.701 0 106.027-43.008 202.069-112.469 271.531s-165.504 112.469-271.531 112.469-202.069-43.008-271.531-112.469-112.469-165.504-112.469-271.531 43.008-202.069 112.469-271.531 165.504-112.469 271.531-112.469c90.667 0 173.995 31.445 239.701 83.968l156.8-156.8c16.683-16.683 43.691-16.683 60.331 0s16.683 43.691 0 60.331z" />
<glyph unicode="&#xeac9;" glyph-name="linkedin" d="M928 960h-832c-52.8 0-96-43.2-96-96v-832c0-52.8 43.2-96 96-96h832c52.8 0 96 43.2 96 96v832c0 52.8-43.2 96-96 96zM384 128h-128v448h128v-448zM320 640c-35.4 0-64 28.6-64 64s28.6 64 64 64c35.4 0 64-28.6 64-64s-28.6-64-64-64zM832 128h-128v256c0 35.4-28.6 64-64 64s-64-28.6-64-64v-256h-128v448h128v-79.4c26.4 36.2 66.8 79.4 112 79.4 79.6 0 144-71.6 144-160v-288z" />
</font>
</defs>
</svg>
