<?xml version="1.0" encoding="utf-8"?>
<!-- Generator: Adobe Illustrator 24.3.0, SVG Export Plug-In . SVG Version: 6.00 Build 0)  -->
<svg version="1.1" baseProfile="tiny" id="Layer_1" xmlns="http://www.w3.org/2000/svg" xmlns:xlink="http://www.w3.org/1999/xlink"
	 x="0px" y="0px" width="32px" height="32px" viewBox="0 0 32 32" overflow="visible" xml:space="preserve">
<g>
	<path fill="#212121" d="M29.7,7H2.3c-1,0-1.7-0.8-1.7-1.7v0c0-1,0.8-1.7,1.7-1.7h27.5c1,0,1.7,0.8,1.7,1.7v0
		C31.5,6.2,30.7,7,29.7,7z"/>
	<path fill="#212121" d="M29.7,17.7H2.3c-1,0-1.7-0.8-1.7-1.7v0c0-1,0.8-1.7,1.7-1.7h27.5c1,0,1.7,0.8,1.7,1.7v0
		C31.5,17,30.7,17.7,29.7,17.7z"/>
	<path fill="#212121" d="M29.7,28.5H2.3c-1,0-1.7-0.8-1.7-1.7v0c0-1,0.8-1.7,1.7-1.7h27.5c1,0,1.7,0.8,1.7,1.7v0
		C31.5,27.7,30.7,28.5,29.7,28.5z"/>
</g>
<g>
</g>
<g>
</g>
<g>
</g>
<g>
</g>
<g>
</g>
</svg>
